<svg xmlns="http://www.w3.org/2000/svg" width="900" height="360" viewBox="0 0 900 360">
  <defs>
    <style>
      .cls-1 {
        fill: #1a1a1a;
      }

      .cls-1, .cls-2, .cls-3 {
        fill-rule: evenodd;
      }

      .cls-2 {
        fill: #ff002a;
      }

      .cls-3 {
        fill: #f3f3f3;
      }
    </style>
  </defs>
  <path class="cls-1" d="M672,13H107L18,347H591.5L628,304l14,43H787L731.593,186.079,882.761,13.618l-164.809-.008L685.3,51.62S676.432,25.873,672,13Z"/>
  <path id="NDX_copy_2" data-name="NDX copy 2" class="cls-2" d="M716.389,143.5l78.782-90.087H736.437L699.677,95.7Z"/>
  <path id="NDX_copy" data-name="NDX copy" class="cls-3" d="M207.554,306.81H277.77l68-253.4H290.98L244.116,228.052,207.864,53.413H138.029l-68,253.4h54.788l44.72-166.648Zm257.875-81.422q-3.982,14.84-13.165,22.829t-30.49,7.99H387.532l40.84-152.19h34.243q21.3,0,26.2,7.99t0.913,22.828Zm85.557-106.152A65.267,65.267,0,0,0,553.057,94.5a38.511,38.511,0,0,0-9.223-20.926q-7.822-9.131-22.7-14.648t-38.089-5.517H384.88l-68,253.4h98.163q23.2,0,41.05-5.517a105.4,105.4,0,0,0,30.564-14.648,78.947,78.947,0,0,0,20.5-21.116,85.9,85.9,0,0,0,11.151-24.541ZM730.836,306.81H672.1l-28.619-82.7-70.544,82.7H513.2l113.986-129.6-43.323-123.8H643.6Z"/>
</svg>
